<?xml version="1.0" standalone="no"?>
<!DOCTYPE svg PUBLIC "-//W3C//DTD SVG 20010904//EN"
 "http://www.w3.org/TR/2001/REC-SVG-20010904/DTD/svg10.dtd">
<svg version="1.0" xmlns="http://www.w3.org/2000/svg"
 width="400.000000pt" height="400.000000pt" viewBox="0 0 400.000000 400.000000"
 preserveAspectRatio="xMidYMid meet">
<metadata>
Created by potrace 1.14, written by Peter Selinger 2001-2017
</metadata>
<g transform="translate(0.000000,400.000000) scale(0.100000,-0.100000)"
fill="#000000" stroke="none">
<path d="M1956 3993 c-10 -3 -39 -17 -65 -32 -25 -15 -109 -60 -186 -100 -77
-41 -144 -77 -150 -81 -5 -4 -68 -38 -140 -75 -71 -37 -143 -75 -160 -85 -16
-10 -64 -35 -105 -57 -41 -22 -133 -71 -205 -110 -71 -38 -182 -98 -246 -131
-200 -106 -233 -127 -257 -162 l-22 -34 2 -890 c3 -772 5 -894 18 -914 8 -12
44 -41 80 -64 36 -22 81 -51 100 -63 19 -13 188 -117 375 -232 347 -214 433
-267 508 -315 23 -15 53 -33 67 -41 14 -7 240 -147 503 -310 408 -253 477
-292 477 -274 1 38 -2 397 -3 505 l-2 103 -295 182 -295 183 -30 -18 c-70 -41
-159 -25 -214 38 -72 81 -44 212 56 259 45 21 67 24 113 12 78 -20 139 -104
128 -177 -4 -30 -1 -33 86 -86 50 -31 107 -66 126 -79 19 -12 111 -69 204
-126 136 -83 171 -100 185 -92 9 6 89 55 178 109 187 113 186 89 3 200 -63 39
-303 186 -533 328 l-418 258 -27 -18 c-18 -13 -46 -18 -88 -19 -52 0 -66 4
-98 29 -56 42 -83 116 -65 180 28 100 141 152 234 108 66 -32 97 -79 98 -152
l0 -46 106 -66 c362 -224 831 -513 856 -528 17 -10 66 -40 110 -67 l80 -50
180 109 c99 60 183 112 187 116 3 4 -105 75 -240 158 -136 83 -317 195 -403
248 l-156 96 -47 -21 c-144 -63 -289 77 -226 218 45 102 169 135 256 68 44
-34 64 -74 67 -135 1 -45 4 -50 40 -72 53 -31 68 -41 97 -59 14 -9 179 -112
368 -228 375 -230 363 -226 397 -155 13 28 15 150 15 903 0 924 1 912 -46 952
-11 9 -118 69 -239 134 -121 65 -247 132 -280 150 -33 18 -100 54 -150 80 -49
26 -103 56 -120 65 -16 10 -79 43 -140 75 -60 32 -132 70 -160 85 -397 215
-429 229 -489 213z m-69 -528 c0 -161 -4 -250 -11 -260 -6 -8 -101 -62 -211
-121 -110 -59 -202 -110 -205 -115 -3 -4 -5 -235 -5 -514 l0 -506 -30 -18
c-16 -10 -68 -39 -115 -63 -47 -25 -133 -71 -191 -102 -58 -31 -113 -56 -121
-56 -14 0 -16 55 -16 491 0 270 -4 495 -8 499 -5 5 -98 -39 -206 -97 -109 -57
-202 -102 -208 -98 -16 10 -14 510 3 522 6 6 57 34 112 63 55 29 123 65 150
80 28 15 86 47 130 70 44 23 103 55 130 70 50 28 137 74 295 157 47 25 108 58
135 73 28 15 95 51 150 80 55 30 122 66 150 81 32 18 54 24 61 18 8 -6 11 -86
11 -254z"/>
</g>
</svg>
