<svg xmlns="http://www.w3.org/2000/svg" viewBox="0 0 30 30">
    <path
        fill="#8A2BE2"
        d="M17.443 12.09a1.002 1.002 0 0 1-.274-1.388 1.002 1.002 0 0 1 1.388-.274A5.496 5.496 0 0 1 21 15c0 1.905-.97 3.585-2.443 4.572a1.002 1.002 0 0 1-1.388-.274 1.002 1.002 0 0 1 .274-1.388 3.498 3.498 0 0 0 0-5.82ZM4 11h4.586l4.707-4.707A1 1 0 0 1 15 7v16a1.002 1.002 0 0 1-1.707.707L8.586 19H4a1 1 0 0 1-1-1v-6a1 1 0 0 1 1-1Zm1 2v4h4l4 4V9l-4 4H5Zm12.666-6.959a1 1 0 0 1 .668-1.885C22.798 5.736 26 9.997 26 15c0 5.003-3.202 9.264-7.666 10.844a1 1 0 0 1-.668-1.885C21.355 22.653 24 19.133 24 15s-2.645-7.653-6.334-8.959Z"
    />
</svg>
