<svg xmlns="http://www.w3.org/2000/svg" viewBox="0 0 30 30">
    <path
        fill="#8A2BE2"
        d="M8.586 11 2.293 4.707a1 1 0 0 1 1.414-1.414l23 23a1 1 0 0 1-1.414 1.414l-3.676-3.676a11.498 11.498 0 0 1-3.283 1.813 1 1 0 0 1-.668-1.885 9.49 9.49 0 0 0 2.525-1.354L15 17.414V23a1.002 1.002 0 0 1-1.707.707L8.586 19H4a1 1 0 0 1-1-1v-6a1 1 0 0 1 1-1h4.586ZM13 15.414l-3.207-3.207L9 13H5v4h4l4 4v-5.586Zm-1-7.828 1.293-1.293A1 1 0 0 1 15 7v3.586l-3-3Zm6.972 6.972a3.504 3.504 0 0 0-1.529-2.468 1.002 1.002 0 0 1-.274-1.388 1.002 1.002 0 0 1 1.388-.274 5.496 5.496 0 0 1 2.262 5.977l-1.847-1.847Zm4.238 4.238A9.46 9.46 0 0 0 24 15c0-4.133-2.645-7.653-6.334-8.959a1 1 0 0 1 .668-1.885C22.798 5.736 26 9.997 26 15c0 1.909-.466 3.71-1.291 5.295l-1.499-1.499Z"
    />
</svg>
